<mxfile host="app.diagrams.net" agent="Mozilla/5.0 (X11; Linux x86_64) AppleWebKit/537.36 (KHTML, like Gecko) Chrome/131.0.0.0 Safari/537.36" version="25.0.3">
  <diagram name="Page-1" id="tGikYW4I7svxsYGuvtX5">
    <mxGraphModel dx="1444" dy="862" grid="1" gridSize="10" guides="1" tooltips="1" connect="1" arrows="1" fold="1" page="1" pageScale="1" pageWidth="827" pageHeight="1169" math="0" shadow="0">
      <root>
        <mxCell id="0" />
        <mxCell id="1" parent="0" />
        <mxCell id="wIyI8dfQiDnWXXMvzWBP-30" style="edgeStyle=orthogonalEdgeStyle;rounded=0;orthogonalLoop=1;jettySize=auto;html=1;exitX=0.5;exitY=1;exitDx=0;exitDy=0;entryX=0.5;entryY=0;entryDx=0;entryDy=0;" parent="1" source="wIyI8dfQiDnWXXMvzWBP-5" target="wIyI8dfQiDnWXXMvzWBP-17" edge="1">
          <mxGeometry relative="1" as="geometry" />
        </mxCell>
        <mxCell id="wIyI8dfQiDnWXXMvzWBP-5" value="server.c" style="rounded=0;whiteSpace=wrap;html=1;" parent="1" vertex="1">
          <mxGeometry x="231" y="42" width="120" height="60" as="geometry" />
        </mxCell>
        <mxCell id="wIyI8dfQiDnWXXMvzWBP-72" style="edgeStyle=orthogonalEdgeStyle;rounded=0;orthogonalLoop=1;jettySize=auto;html=1;exitX=0.5;exitY=1;exitDx=0;exitDy=0;entryX=0.5;entryY=0;entryDx=0;entryDy=0;" parent="1" source="wIyI8dfQiDnWXXMvzWBP-6" target="wIyI8dfQiDnWXXMvzWBP-67" edge="1">
          <mxGeometry relative="1" as="geometry" />
        </mxCell>
        <mxCell id="wIyI8dfQiDnWXXMvzWBP-6" value="client.c" style="rounded=0;whiteSpace=wrap;html=1;" parent="1" vertex="1">
          <mxGeometry x="601" y="42" width="120" height="60" as="geometry" />
        </mxCell>
        <mxCell id="wIyI8dfQiDnWXXMvzWBP-32" style="edgeStyle=orthogonalEdgeStyle;rounded=0;orthogonalLoop=1;jettySize=auto;html=1;exitX=0.5;exitY=1;exitDx=0;exitDy=0;entryX=0.5;entryY=0;entryDx=0;entryDy=0;" parent="1" source="wIyI8dfQiDnWXXMvzWBP-9" target="wIyI8dfQiDnWXXMvzWBP-19" edge="1">
          <mxGeometry relative="1" as="geometry" />
        </mxCell>
        <mxCell id="wIyI8dfQiDnWXXMvzWBP-9" value="socket()" style="rounded=0;whiteSpace=wrap;html=1;" parent="1" vertex="1">
          <mxGeometry x="231" y="202" width="120" height="20" as="geometry" />
        </mxCell>
        <mxCell id="wIyI8dfQiDnWXXMvzWBP-37" style="edgeStyle=orthogonalEdgeStyle;rounded=0;orthogonalLoop=1;jettySize=auto;html=1;exitX=0.5;exitY=1;exitDx=0;exitDy=0;entryX=0.5;entryY=0;entryDx=0;entryDy=0;" parent="1" source="wIyI8dfQiDnWXXMvzWBP-10" target="wIyI8dfQiDnWXXMvzWBP-12" edge="1">
          <mxGeometry relative="1" as="geometry" />
        </mxCell>
        <mxCell id="wIyI8dfQiDnWXXMvzWBP-60" style="edgeStyle=orthogonalEdgeStyle;rounded=0;orthogonalLoop=1;jettySize=auto;html=1;exitX=1;exitY=0.5;exitDx=0;exitDy=0;entryX=0.5;entryY=0;entryDx=0;entryDy=0;" parent="1" source="wIyI8dfQiDnWXXMvzWBP-10" target="wIyI8dfQiDnWXXMvzWBP-45" edge="1">
          <mxGeometry relative="1" as="geometry" />
        </mxCell>
        <mxCell id="wIyI8dfQiDnWXXMvzWBP-10" value="pthread_create()" style="rounded=0;whiteSpace=wrap;html=1;" parent="1" vertex="1">
          <mxGeometry x="231" y="442" width="120" height="20" as="geometry" />
        </mxCell>
        <mxCell id="wIyI8dfQiDnWXXMvzWBP-36" style="edgeStyle=orthogonalEdgeStyle;rounded=0;orthogonalLoop=1;jettySize=auto;html=1;exitX=0.5;exitY=1;exitDx=0;exitDy=0;entryX=0.5;entryY=0;entryDx=0;entryDy=0;" parent="1" source="wIyI8dfQiDnWXXMvzWBP-11" target="wIyI8dfQiDnWXXMvzWBP-10" edge="1">
          <mxGeometry relative="1" as="geometry" />
        </mxCell>
        <mxCell id="wIyI8dfQiDnWXXMvzWBP-11" value="bind()" style="rounded=0;whiteSpace=wrap;html=1;" parent="1" vertex="1">
          <mxGeometry x="231" y="402" width="120" height="20" as="geometry" />
        </mxCell>
        <mxCell id="wIyI8dfQiDnWXXMvzWBP-38" style="edgeStyle=orthogonalEdgeStyle;rounded=0;orthogonalLoop=1;jettySize=auto;html=1;exitX=0.5;exitY=1;exitDx=0;exitDy=0;entryX=0.5;entryY=0;entryDx=0;entryDy=0;" parent="1" source="wIyI8dfQiDnWXXMvzWBP-12" target="wIyI8dfQiDnWXXMvzWBP-22" edge="1">
          <mxGeometry relative="1" as="geometry" />
        </mxCell>
        <mxCell id="wIyI8dfQiDnWXXMvzWBP-61" style="edgeStyle=orthogonalEdgeStyle;rounded=0;orthogonalLoop=1;jettySize=auto;html=1;exitX=0;exitY=0.5;exitDx=0;exitDy=0;entryX=0.5;entryY=0;entryDx=0;entryDy=0;" parent="1" source="wIyI8dfQiDnWXXMvzWBP-12" target="wIyI8dfQiDnWXXMvzWBP-46" edge="1">
          <mxGeometry relative="1" as="geometry" />
        </mxCell>
        <mxCell id="wIyI8dfQiDnWXXMvzWBP-12" value="pthread_create()" style="rounded=0;whiteSpace=wrap;html=1;" parent="1" vertex="1">
          <mxGeometry x="231" y="482" width="120" height="20" as="geometry" />
        </mxCell>
        <mxCell id="wIyI8dfQiDnWXXMvzWBP-34" style="edgeStyle=orthogonalEdgeStyle;rounded=0;orthogonalLoop=1;jettySize=auto;html=1;exitX=0.5;exitY=1;exitDx=0;exitDy=0;entryX=0.5;entryY=0;entryDx=0;entryDy=0;" parent="1" source="69QTZIDmYjtBVXrWONyk-1" target="wIyI8dfQiDnWXXMvzWBP-16" edge="1">
          <mxGeometry relative="1" as="geometry" />
        </mxCell>
        <mxCell id="wIyI8dfQiDnWXXMvzWBP-15" value="listen()" style="rounded=0;whiteSpace=wrap;html=1;" parent="1" vertex="1">
          <mxGeometry x="231" y="282" width="120" height="20" as="geometry" />
        </mxCell>
        <mxCell id="wIyI8dfQiDnWXXMvzWBP-35" style="edgeStyle=orthogonalEdgeStyle;rounded=0;orthogonalLoop=1;jettySize=auto;html=1;exitX=0.5;exitY=1;exitDx=0;exitDy=0;entryX=0.5;entryY=0;entryDx=0;entryDy=0;" parent="1" source="wIyI8dfQiDnWXXMvzWBP-16" target="wIyI8dfQiDnWXXMvzWBP-11" edge="1">
          <mxGeometry relative="1" as="geometry" />
        </mxCell>
        <mxCell id="wIyI8dfQiDnWXXMvzWBP-16" value="socket()" style="rounded=0;whiteSpace=wrap;html=1;" parent="1" vertex="1">
          <mxGeometry x="231" y="362" width="120" height="20" as="geometry" />
        </mxCell>
        <mxCell id="wIyI8dfQiDnWXXMvzWBP-31" style="edgeStyle=orthogonalEdgeStyle;rounded=0;orthogonalLoop=1;jettySize=auto;html=1;exitX=0.5;exitY=1;exitDx=0;exitDy=0;entryX=0.5;entryY=0;entryDx=0;entryDy=0;" parent="1" source="wIyI8dfQiDnWXXMvzWBP-17" target="wIyI8dfQiDnWXXMvzWBP-9" edge="1">
          <mxGeometry relative="1" as="geometry" />
        </mxCell>
        <mxCell id="wIyI8dfQiDnWXXMvzWBP-17" value="FD_ZERO()" style="rounded=0;whiteSpace=wrap;html=1;" parent="1" vertex="1">
          <mxGeometry x="231" y="162" width="120" height="20" as="geometry" />
        </mxCell>
        <mxCell id="wIyI8dfQiDnWXXMvzWBP-33" style="edgeStyle=orthogonalEdgeStyle;rounded=0;orthogonalLoop=1;jettySize=auto;html=1;exitX=0.5;exitY=1;exitDx=0;exitDy=0;entryX=0.5;entryY=0;entryDx=0;entryDy=0;" parent="1" source="wIyI8dfQiDnWXXMvzWBP-19" target="wIyI8dfQiDnWXXMvzWBP-15" edge="1">
          <mxGeometry relative="1" as="geometry" />
        </mxCell>
        <mxCell id="wIyI8dfQiDnWXXMvzWBP-19" value="bind()" style="rounded=0;whiteSpace=wrap;html=1;" parent="1" vertex="1">
          <mxGeometry x="231" y="242" width="120" height="20" as="geometry" />
        </mxCell>
        <mxCell id="69QTZIDmYjtBVXrWONyk-5" style="edgeStyle=orthogonalEdgeStyle;rounded=0;orthogonalLoop=1;jettySize=auto;html=1;exitX=0.5;exitY=1;exitDx=0;exitDy=0;" edge="1" parent="1" source="wIyI8dfQiDnWXXMvzWBP-22">
          <mxGeometry relative="1" as="geometry">
            <mxPoint x="291.2758620689656" y="561.9999999999999" as="targetPoint" />
          </mxGeometry>
        </mxCell>
        <mxCell id="wIyI8dfQiDnWXXMvzWBP-22" value="running_condition()" style="rounded=0;whiteSpace=wrap;html=1;" parent="1" vertex="1">
          <mxGeometry x="231" y="522" width="120" height="20" as="geometry" />
        </mxCell>
        <mxCell id="69QTZIDmYjtBVXrWONyk-17" style="edgeStyle=orthogonalEdgeStyle;rounded=0;orthogonalLoop=1;jettySize=auto;html=1;exitX=0.5;exitY=1;exitDx=0;exitDy=0;entryX=0.5;entryY=0;entryDx=0;entryDy=0;" edge="1" parent="1" source="wIyI8dfQiDnWXXMvzWBP-23" target="69QTZIDmYjtBVXrWONyk-3">
          <mxGeometry relative="1" as="geometry" />
        </mxCell>
        <mxCell id="69QTZIDmYjtBVXrWONyk-19" style="edgeStyle=orthogonalEdgeStyle;rounded=0;orthogonalLoop=1;jettySize=auto;html=1;exitX=0;exitY=0.5;exitDx=0;exitDy=0;entryX=0;entryY=0.5;entryDx=0;entryDy=0;" edge="1" parent="1" source="wIyI8dfQiDnWXXMvzWBP-23" target="wIyI8dfQiDnWXXMvzWBP-22">
          <mxGeometry relative="1" as="geometry">
            <Array as="points">
              <mxPoint x="221" y="572" />
              <mxPoint x="221" y="532" />
            </Array>
          </mxGeometry>
        </mxCell>
        <mxCell id="wIyI8dfQiDnWXXMvzWBP-23" value="accept()" style="rounded=0;whiteSpace=wrap;html=1;" parent="1" vertex="1">
          <mxGeometry x="231" y="562" width="120" height="20" as="geometry" />
        </mxCell>
        <mxCell id="wIyI8dfQiDnWXXMvzWBP-41" style="edgeStyle=orthogonalEdgeStyle;rounded=0;orthogonalLoop=1;jettySize=auto;html=1;exitX=0.5;exitY=1;exitDx=0;exitDy=0;entryX=0.5;entryY=0;entryDx=0;entryDy=0;" parent="1" source="wIyI8dfQiDnWXXMvzWBP-24" target="wIyI8dfQiDnWXXMvzWBP-25" edge="1">
          <mxGeometry relative="1" as="geometry" />
        </mxCell>
        <mxCell id="69QTZIDmYjtBVXrWONyk-8" style="edgeStyle=orthogonalEdgeStyle;rounded=0;orthogonalLoop=1;jettySize=auto;html=1;exitX=0;exitY=0.5;exitDx=0;exitDy=0;entryX=0;entryY=0.5;entryDx=0;entryDy=0;" edge="1" parent="1" source="wIyI8dfQiDnWXXMvzWBP-24" target="wIyI8dfQiDnWXXMvzWBP-22">
          <mxGeometry relative="1" as="geometry">
            <Array as="points">
              <mxPoint x="221" y="653" />
              <mxPoint x="221" y="532" />
            </Array>
          </mxGeometry>
        </mxCell>
        <mxCell id="wIyI8dfQiDnWXXMvzWBP-24" value="FD_SET()" style="rounded=0;whiteSpace=wrap;html=1;" parent="1" vertex="1">
          <mxGeometry x="231" y="643" width="120" height="20" as="geometry" />
        </mxCell>
        <mxCell id="wIyI8dfQiDnWXXMvzWBP-42" style="edgeStyle=orthogonalEdgeStyle;rounded=0;orthogonalLoop=1;jettySize=auto;html=1;exitX=0.5;exitY=1;exitDx=0;exitDy=0;entryX=0.5;entryY=0;entryDx=0;entryDy=0;" parent="1" source="wIyI8dfQiDnWXXMvzWBP-25" target="wIyI8dfQiDnWXXMvzWBP-26" edge="1">
          <mxGeometry relative="1" as="geometry" />
        </mxCell>
        <mxCell id="wIyI8dfQiDnWXXMvzWBP-25" value="pthread_join()" style="rounded=0;whiteSpace=wrap;html=1;" parent="1" vertex="1">
          <mxGeometry x="231" y="682.5" width="120" height="20" as="geometry" />
        </mxCell>
        <mxCell id="wIyI8dfQiDnWXXMvzWBP-43" style="edgeStyle=orthogonalEdgeStyle;rounded=0;orthogonalLoop=1;jettySize=auto;html=1;exitX=0.5;exitY=1;exitDx=0;exitDy=0;entryX=0.5;entryY=0;entryDx=0;entryDy=0;" parent="1" source="wIyI8dfQiDnWXXMvzWBP-26" target="wIyI8dfQiDnWXXMvzWBP-27" edge="1">
          <mxGeometry relative="1" as="geometry" />
        </mxCell>
        <mxCell id="wIyI8dfQiDnWXXMvzWBP-26" value="pthread_join()" style="rounded=0;whiteSpace=wrap;html=1;" parent="1" vertex="1">
          <mxGeometry x="231" y="722.5" width="120" height="20" as="geometry" />
        </mxCell>
        <mxCell id="wIyI8dfQiDnWXXMvzWBP-44" style="edgeStyle=orthogonalEdgeStyle;rounded=0;orthogonalLoop=1;jettySize=auto;html=1;exitX=0.5;exitY=1;exitDx=0;exitDy=0;entryX=0.5;entryY=0;entryDx=0;entryDy=0;" parent="1" source="wIyI8dfQiDnWXXMvzWBP-27" target="wIyI8dfQiDnWXXMvzWBP-28" edge="1">
          <mxGeometry relative="1" as="geometry" />
        </mxCell>
        <mxCell id="wIyI8dfQiDnWXXMvzWBP-27" value="close()" style="rounded=0;whiteSpace=wrap;html=1;" parent="1" vertex="1">
          <mxGeometry x="231" y="762.5" width="120" height="20" as="geometry" />
        </mxCell>
        <mxCell id="wIyI8dfQiDnWXXMvzWBP-28" value="close()" style="rounded=0;whiteSpace=wrap;html=1;" parent="1" vertex="1">
          <mxGeometry x="231" y="802.5" width="120" height="20" as="geometry" />
        </mxCell>
        <mxCell id="wIyI8dfQiDnWXXMvzWBP-54" style="edgeStyle=orthogonalEdgeStyle;rounded=0;orthogonalLoop=1;jettySize=auto;html=1;exitX=0.5;exitY=1;exitDx=0;exitDy=0;entryX=0.5;entryY=0;entryDx=0;entryDy=0;" parent="1" source="wIyI8dfQiDnWXXMvzWBP-45" target="wIyI8dfQiDnWXXMvzWBP-47" edge="1">
          <mxGeometry relative="1" as="geometry" />
        </mxCell>
        <mxCell id="wIyI8dfQiDnWXXMvzWBP-45" value="running_condition()" style="rounded=0;whiteSpace=wrap;html=1;" parent="1" vertex="1">
          <mxGeometry x="371" y="522" width="120" height="20" as="geometry" />
        </mxCell>
        <mxCell id="wIyI8dfQiDnWXXMvzWBP-64" style="edgeStyle=orthogonalEdgeStyle;rounded=0;orthogonalLoop=1;jettySize=auto;html=1;exitX=0.5;exitY=1;exitDx=0;exitDy=0;entryX=0.5;entryY=0;entryDx=0;entryDy=0;" parent="1" source="wIyI8dfQiDnWXXMvzWBP-46" target="wIyI8dfQiDnWXXMvzWBP-62" edge="1">
          <mxGeometry relative="1" as="geometry" />
        </mxCell>
        <mxCell id="wIyI8dfQiDnWXXMvzWBP-46" value="running_condition()" style="rounded=0;whiteSpace=wrap;html=1;" parent="1" vertex="1">
          <mxGeometry x="91" y="522" width="120" height="20" as="geometry" />
        </mxCell>
        <mxCell id="wIyI8dfQiDnWXXMvzWBP-55" style="edgeStyle=orthogonalEdgeStyle;rounded=0;orthogonalLoop=1;jettySize=auto;html=1;exitX=0.5;exitY=1;exitDx=0;exitDy=0;entryX=0.5;entryY=0;entryDx=0;entryDy=0;" parent="1" source="wIyI8dfQiDnWXXMvzWBP-47" target="wIyI8dfQiDnWXXMvzWBP-48" edge="1">
          <mxGeometry relative="1" as="geometry" />
        </mxCell>
        <mxCell id="wIyI8dfQiDnWXXMvzWBP-47" value="select()" style="rounded=0;whiteSpace=wrap;html=1;" parent="1" vertex="1">
          <mxGeometry x="371" y="562" width="120" height="20" as="geometry" />
        </mxCell>
        <mxCell id="wIyI8dfQiDnWXXMvzWBP-56" style="edgeStyle=orthogonalEdgeStyle;rounded=0;orthogonalLoop=1;jettySize=auto;html=1;exitX=0.5;exitY=1;exitDx=0;exitDy=0;entryX=0.5;entryY=0;entryDx=0;entryDy=0;" parent="1" source="wIyI8dfQiDnWXXMvzWBP-48" target="wIyI8dfQiDnWXXMvzWBP-49" edge="1">
          <mxGeometry relative="1" as="geometry" />
        </mxCell>
        <mxCell id="wIyI8dfQiDnWXXMvzWBP-48" value="FD_ISSET()" style="rounded=0;whiteSpace=wrap;html=1;" parent="1" vertex="1">
          <mxGeometry x="371" y="602.5" width="120" height="20" as="geometry" />
        </mxCell>
        <mxCell id="wIyI8dfQiDnWXXMvzWBP-57" style="edgeStyle=orthogonalEdgeStyle;rounded=0;orthogonalLoop=1;jettySize=auto;html=1;exitX=0.5;exitY=1;exitDx=0;exitDy=0;entryX=0.5;entryY=0;entryDx=0;entryDy=0;" parent="1" source="wIyI8dfQiDnWXXMvzWBP-49" target="wIyI8dfQiDnWXXMvzWBP-50" edge="1">
          <mxGeometry relative="1" as="geometry" />
        </mxCell>
        <mxCell id="wIyI8dfQiDnWXXMvzWBP-49" value="read()" style="rounded=0;whiteSpace=wrap;html=1;" parent="1" vertex="1">
          <mxGeometry x="371" y="642" width="120" height="20" as="geometry" />
        </mxCell>
        <mxCell id="wIyI8dfQiDnWXXMvzWBP-58" style="edgeStyle=orthogonalEdgeStyle;rounded=0;orthogonalLoop=1;jettySize=auto;html=1;exitX=0.5;exitY=1;exitDx=0;exitDy=0;entryX=0.5;entryY=0;entryDx=0;entryDy=0;" parent="1" source="wIyI8dfQiDnWXXMvzWBP-50" edge="1">
          <mxGeometry relative="1" as="geometry">
            <mxPoint x="431" y="722" as="targetPoint" />
          </mxGeometry>
        </mxCell>
        <mxCell id="69QTZIDmYjtBVXrWONyk-22" style="edgeStyle=orthogonalEdgeStyle;rounded=0;orthogonalLoop=1;jettySize=auto;html=1;exitX=1;exitY=0.5;exitDx=0;exitDy=0;entryX=0;entryY=0.5;entryDx=0;entryDy=0;" edge="1" parent="1" source="wIyI8dfQiDnWXXMvzWBP-50" target="wIyI8dfQiDnWXXMvzWBP-77">
          <mxGeometry relative="1" as="geometry">
            <Array as="points">
              <mxPoint x="591" y="692" />
              <mxPoint x="591" y="492" />
            </Array>
          </mxGeometry>
        </mxCell>
        <mxCell id="wIyI8dfQiDnWXXMvzWBP-50" value="write&lt;span style=&quot;background-color: initial;&quot;&gt;()&lt;/span&gt;" style="rounded=0;whiteSpace=wrap;html=1;" parent="1" vertex="1">
          <mxGeometry x="371" y="682" width="120" height="20" as="geometry" />
        </mxCell>
        <mxCell id="wIyI8dfQiDnWXXMvzWBP-59" style="edgeStyle=orthogonalEdgeStyle;rounded=0;orthogonalLoop=1;jettySize=auto;html=1;exitX=0.5;exitY=1;exitDx=0;exitDy=0;entryX=0.5;entryY=0;entryDx=0;entryDy=0;" parent="1" target="wIyI8dfQiDnWXXMvzWBP-53" edge="1">
          <mxGeometry relative="1" as="geometry">
            <mxPoint x="431" y="742" as="sourcePoint" />
          </mxGeometry>
        </mxCell>
        <mxCell id="69QTZIDmYjtBVXrWONyk-11" style="edgeStyle=orthogonalEdgeStyle;rounded=0;orthogonalLoop=1;jettySize=auto;html=1;exitX=0;exitY=0.5;exitDx=0;exitDy=0;entryX=0;entryY=0.5;entryDx=0;entryDy=0;" edge="1" parent="1" source="wIyI8dfQiDnWXXMvzWBP-53" target="wIyI8dfQiDnWXXMvzWBP-45">
          <mxGeometry relative="1" as="geometry">
            <Array as="points">
              <mxPoint x="361" y="732" />
              <mxPoint x="361" y="532" />
            </Array>
          </mxGeometry>
        </mxCell>
        <mxCell id="wIyI8dfQiDnWXXMvzWBP-53" value="FD_CLR()" style="rounded=0;whiteSpace=wrap;html=1;" parent="1" vertex="1">
          <mxGeometry x="371" y="722" width="120" height="20" as="geometry" />
        </mxCell>
        <mxCell id="wIyI8dfQiDnWXXMvzWBP-65" style="edgeStyle=orthogonalEdgeStyle;rounded=0;orthogonalLoop=1;jettySize=auto;html=1;exitX=0.5;exitY=1;exitDx=0;exitDy=0;" parent="1" source="wIyI8dfQiDnWXXMvzWBP-62" edge="1">
          <mxGeometry relative="1" as="geometry">
            <mxPoint x="151" y="602" as="targetPoint" />
          </mxGeometry>
        </mxCell>
        <mxCell id="69QTZIDmYjtBVXrWONyk-10" style="edgeStyle=orthogonalEdgeStyle;rounded=0;orthogonalLoop=1;jettySize=auto;html=1;exitX=0;exitY=0.5;exitDx=0;exitDy=0;entryX=0;entryY=0.5;entryDx=0;entryDy=0;" edge="1" parent="1" source="wIyI8dfQiDnWXXMvzWBP-62" target="wIyI8dfQiDnWXXMvzWBP-46">
          <mxGeometry relative="1" as="geometry" />
        </mxCell>
        <mxCell id="wIyI8dfQiDnWXXMvzWBP-62" value="recvfrom()" style="rounded=0;whiteSpace=wrap;html=1;" parent="1" vertex="1">
          <mxGeometry x="91" y="562" width="120" height="20" as="geometry" />
        </mxCell>
        <mxCell id="69QTZIDmYjtBVXrWONyk-9" style="edgeStyle=orthogonalEdgeStyle;rounded=0;orthogonalLoop=1;jettySize=auto;html=1;exitX=0;exitY=0.5;exitDx=0;exitDy=0;entryX=0;entryY=0.5;entryDx=0;entryDy=0;" edge="1" parent="1" source="wIyI8dfQiDnWXXMvzWBP-63" target="wIyI8dfQiDnWXXMvzWBP-46">
          <mxGeometry relative="1" as="geometry" />
        </mxCell>
        <mxCell id="69QTZIDmYjtBVXrWONyk-23" style="edgeStyle=orthogonalEdgeStyle;rounded=0;orthogonalLoop=1;jettySize=auto;html=1;exitX=0.25;exitY=0;exitDx=0;exitDy=0;entryX=0;entryY=0.5;entryDx=0;entryDy=0;" edge="1" parent="1" source="wIyI8dfQiDnWXXMvzWBP-63" target="wIyI8dfQiDnWXXMvzWBP-77">
          <mxGeometry relative="1" as="geometry">
            <Array as="points">
              <mxPoint x="121" y="592" />
              <mxPoint x="41" y="592" />
              <mxPoint x="41" y="862" />
              <mxPoint x="591" y="862" />
              <mxPoint x="591" y="492" />
            </Array>
          </mxGeometry>
        </mxCell>
        <mxCell id="wIyI8dfQiDnWXXMvzWBP-63" value="sendto()" style="rounded=0;whiteSpace=wrap;html=1;" parent="1" vertex="1">
          <mxGeometry x="91" y="602.5" width="120" height="20" as="geometry" />
        </mxCell>
        <mxCell id="69QTZIDmYjtBVXrWONyk-30" style="edgeStyle=orthogonalEdgeStyle;rounded=0;orthogonalLoop=1;jettySize=auto;html=1;exitX=0.5;exitY=1;exitDx=0;exitDy=0;entryX=0.5;entryY=0;entryDx=0;entryDy=0;" edge="1" parent="1" source="wIyI8dfQiDnWXXMvzWBP-67" target="wIyI8dfQiDnWXXMvzWBP-69">
          <mxGeometry relative="1" as="geometry" />
        </mxCell>
        <mxCell id="wIyI8dfQiDnWXXMvzWBP-67" value="socket()" style="rounded=0;whiteSpace=wrap;html=1;" parent="1" vertex="1">
          <mxGeometry x="601" y="242" width="120" height="20" as="geometry" />
        </mxCell>
        <mxCell id="69QTZIDmYjtBVXrWONyk-31" style="edgeStyle=orthogonalEdgeStyle;rounded=0;orthogonalLoop=1;jettySize=auto;html=1;exitX=0.5;exitY=1;exitDx=0;exitDy=0;entryX=0.5;entryY=0;entryDx=0;entryDy=0;" edge="1" parent="1" source="wIyI8dfQiDnWXXMvzWBP-69" target="wIyI8dfQiDnWXXMvzWBP-71">
          <mxGeometry relative="1" as="geometry" />
        </mxCell>
        <mxCell id="wIyI8dfQiDnWXXMvzWBP-69" value="connect()" style="rounded=0;whiteSpace=wrap;html=1;" parent="1" vertex="1">
          <mxGeometry x="601" y="282" width="120" height="20" as="geometry" />
        </mxCell>
        <mxCell id="69QTZIDmYjtBVXrWONyk-32" style="edgeStyle=orthogonalEdgeStyle;rounded=0;orthogonalLoop=1;jettySize=auto;html=1;exitX=0.5;exitY=1;exitDx=0;exitDy=0;entryX=0.5;entryY=0;entryDx=0;entryDy=0;" edge="1" parent="1" source="wIyI8dfQiDnWXXMvzWBP-71" target="wIyI8dfQiDnWXXMvzWBP-73">
          <mxGeometry relative="1" as="geometry" />
        </mxCell>
        <mxCell id="wIyI8dfQiDnWXXMvzWBP-71" value="socket()" style="rounded=0;whiteSpace=wrap;html=1;" parent="1" vertex="1">
          <mxGeometry x="601" y="322" width="120" height="20" as="geometry" />
        </mxCell>
        <mxCell id="wIyI8dfQiDnWXXMvzWBP-78" style="edgeStyle=orthogonalEdgeStyle;rounded=0;orthogonalLoop=1;jettySize=auto;html=1;exitX=0.5;exitY=1;exitDx=0;exitDy=0;entryX=0.5;entryY=0;entryDx=0;entryDy=0;" parent="1" source="wIyI8dfQiDnWXXMvzWBP-73" target="wIyI8dfQiDnWXXMvzWBP-75" edge="1">
          <mxGeometry relative="1" as="geometry" />
        </mxCell>
        <mxCell id="wIyI8dfQiDnWXXMvzWBP-73" value="connect()" style="rounded=0;whiteSpace=wrap;html=1;" parent="1" vertex="1">
          <mxGeometry x="601" y="362" width="120" height="20" as="geometry" />
        </mxCell>
        <mxCell id="wIyI8dfQiDnWXXMvzWBP-74" style="edgeStyle=orthogonalEdgeStyle;rounded=0;orthogonalLoop=1;jettySize=auto;html=1;exitX=0.5;exitY=1;exitDx=0;exitDy=0;entryX=0.5;entryY=0;entryDx=0;entryDy=0;" parent="1" source="wIyI8dfQiDnWXXMvzWBP-75" target="wIyI8dfQiDnWXXMvzWBP-76" edge="1">
          <mxGeometry relative="1" as="geometry" />
        </mxCell>
        <mxCell id="wIyI8dfQiDnWXXMvzWBP-75" value="read()" style="rounded=0;whiteSpace=wrap;html=1;" parent="1" vertex="1">
          <mxGeometry x="601" y="402" width="120" height="20" as="geometry" />
        </mxCell>
        <mxCell id="wIyI8dfQiDnWXXMvzWBP-79" style="edgeStyle=orthogonalEdgeStyle;rounded=0;orthogonalLoop=1;jettySize=auto;html=1;exitX=0.5;exitY=1;exitDx=0;exitDy=0;" parent="1" source="wIyI8dfQiDnWXXMvzWBP-76" target="wIyI8dfQiDnWXXMvzWBP-77" edge="1">
          <mxGeometry relative="1" as="geometry" />
        </mxCell>
        <mxCell id="69QTZIDmYjtBVXrWONyk-20" style="edgeStyle=orthogonalEdgeStyle;rounded=0;orthogonalLoop=1;jettySize=auto;html=1;exitX=0;exitY=0.5;exitDx=0;exitDy=0;entryX=1;entryY=0.5;entryDx=0;entryDy=0;" edge="1" parent="1" source="wIyI8dfQiDnWXXMvzWBP-76" target="wIyI8dfQiDnWXXMvzWBP-49">
          <mxGeometry relative="1" as="geometry">
            <Array as="points">
              <mxPoint x="551" y="452" />
              <mxPoint x="551" y="652" />
            </Array>
          </mxGeometry>
        </mxCell>
        <mxCell id="69QTZIDmYjtBVXrWONyk-21" style="edgeStyle=orthogonalEdgeStyle;rounded=0;orthogonalLoop=1;jettySize=auto;html=1;exitX=0;exitY=0.5;exitDx=0;exitDy=0;entryX=0.25;entryY=0;entryDx=0;entryDy=0;" edge="1" parent="1" source="wIyI8dfQiDnWXXMvzWBP-76" target="wIyI8dfQiDnWXXMvzWBP-62">
          <mxGeometry relative="1" as="geometry">
            <Array as="points">
              <mxPoint x="551" y="452" />
              <mxPoint x="551" y="842" />
              <mxPoint x="61" y="842" />
              <mxPoint x="61" y="552" />
              <mxPoint x="121" y="552" />
            </Array>
          </mxGeometry>
        </mxCell>
        <mxCell id="wIyI8dfQiDnWXXMvzWBP-76" value="write&lt;span style=&quot;background-color: initial;&quot;&gt;() / sendto()&lt;/span&gt;" style="rounded=0;whiteSpace=wrap;html=1;" parent="1" vertex="1">
          <mxGeometry x="601" y="442" width="120" height="20" as="geometry" />
        </mxCell>
        <mxCell id="wIyI8dfQiDnWXXMvzWBP-83" style="edgeStyle=orthogonalEdgeStyle;rounded=0;orthogonalLoop=1;jettySize=auto;html=1;exitX=0.5;exitY=1;exitDx=0;exitDy=0;entryX=0.5;entryY=0;entryDx=0;entryDy=0;" parent="1" source="wIyI8dfQiDnWXXMvzWBP-77" target="wIyI8dfQiDnWXXMvzWBP-81" edge="1">
          <mxGeometry relative="1" as="geometry" />
        </mxCell>
        <mxCell id="wIyI8dfQiDnWXXMvzWBP-84" style="edgeStyle=orthogonalEdgeStyle;rounded=0;orthogonalLoop=1;jettySize=auto;html=1;exitX=1;exitY=0.5;exitDx=0;exitDy=0;entryX=1;entryY=0.5;entryDx=0;entryDy=0;" parent="1" source="wIyI8dfQiDnWXXMvzWBP-77" target="wIyI8dfQiDnWXXMvzWBP-75" edge="1">
          <mxGeometry relative="1" as="geometry">
            <Array as="points">
              <mxPoint x="751" y="492" />
              <mxPoint x="751" y="412" />
            </Array>
          </mxGeometry>
        </mxCell>
        <mxCell id="wIyI8dfQiDnWXXMvzWBP-77" value="read() / recvfrom()" style="rounded=0;whiteSpace=wrap;html=1;" parent="1" vertex="1">
          <mxGeometry x="601" y="482" width="120" height="20" as="geometry" />
        </mxCell>
        <mxCell id="wIyI8dfQiDnWXXMvzWBP-80" style="edgeStyle=orthogonalEdgeStyle;rounded=0;orthogonalLoop=1;jettySize=auto;html=1;exitX=0.5;exitY=1;exitDx=0;exitDy=0;entryX=0.5;entryY=0;entryDx=0;entryDy=0;" parent="1" source="wIyI8dfQiDnWXXMvzWBP-81" target="wIyI8dfQiDnWXXMvzWBP-82" edge="1">
          <mxGeometry relative="1" as="geometry" />
        </mxCell>
        <mxCell id="wIyI8dfQiDnWXXMvzWBP-81" value="close()" style="rounded=0;whiteSpace=wrap;html=1;" parent="1" vertex="1">
          <mxGeometry x="601" y="522" width="120" height="20" as="geometry" />
        </mxCell>
        <mxCell id="wIyI8dfQiDnWXXMvzWBP-82" value="close()" style="rounded=0;whiteSpace=wrap;html=1;" parent="1" vertex="1">
          <mxGeometry x="601" y="562" width="120" height="20" as="geometry" />
        </mxCell>
        <mxCell id="wIyI8dfQiDnWXXMvzWBP-86" value="&lt;font style=&quot;font-size: 9px;&quot;&gt;// tcp socket - for listening&lt;/font&gt;" style="text;html=1;align=center;verticalAlign=middle;whiteSpace=wrap;rounded=0;" parent="1" vertex="1">
          <mxGeometry x="365" y="202" width="106" height="20" as="geometry" />
        </mxCell>
        <mxCell id="wIyI8dfQiDnWXXMvzWBP-87" value="&lt;font style=&quot;font-size: 9px;&quot;&gt;// tcp bind&lt;/font&gt;" style="text;html=1;align=center;verticalAlign=middle;whiteSpace=wrap;rounded=0;" parent="1" vertex="1">
          <mxGeometry x="365" y="242" width="106" height="20" as="geometry" />
        </mxCell>
        <mxCell id="wIyI8dfQiDnWXXMvzWBP-90" value="&lt;font style=&quot;font-size: 9px;&quot;&gt;// udp socket&lt;/font&gt;" style="text;html=1;align=center;verticalAlign=middle;whiteSpace=wrap;rounded=0;" parent="1" vertex="1">
          <mxGeometry x="365" y="362" width="106" height="20" as="geometry" />
        </mxCell>
        <mxCell id="wIyI8dfQiDnWXXMvzWBP-91" value="&lt;font style=&quot;font-size: 9px;&quot;&gt;// udp bind&lt;/font&gt;" style="text;html=1;align=center;verticalAlign=middle;whiteSpace=wrap;rounded=0;" parent="1" vertex="1">
          <mxGeometry x="365" y="402" width="106" height="20" as="geometry" />
        </mxCell>
        <mxCell id="wIyI8dfQiDnWXXMvzWBP-92" value="&lt;font style=&quot;font-size: 9px;&quot;&gt;// tcp listen&lt;/font&gt;" style="text;html=1;align=center;verticalAlign=middle;whiteSpace=wrap;rounded=0;" parent="1" vertex="1">
          <mxGeometry x="365" y="282" width="106" height="20" as="geometry" />
        </mxCell>
        <mxCell id="69QTZIDmYjtBVXrWONyk-2" value="" style="edgeStyle=orthogonalEdgeStyle;rounded=0;orthogonalLoop=1;jettySize=auto;html=1;exitX=0.5;exitY=1;exitDx=0;exitDy=0;entryX=0.5;entryY=0;entryDx=0;entryDy=0;" edge="1" parent="1" source="wIyI8dfQiDnWXXMvzWBP-15" target="69QTZIDmYjtBVXrWONyk-1">
          <mxGeometry relative="1" as="geometry">
            <mxPoint x="291" y="302" as="sourcePoint" />
            <mxPoint x="291" y="362" as="targetPoint" />
          </mxGeometry>
        </mxCell>
        <mxCell id="69QTZIDmYjtBVXrWONyk-1" value="setsockopt()" style="rounded=0;whiteSpace=wrap;html=1;" vertex="1" parent="1">
          <mxGeometry x="231" y="322" width="120" height="20" as="geometry" />
        </mxCell>
        <mxCell id="69QTZIDmYjtBVXrWONyk-18" style="edgeStyle=orthogonalEdgeStyle;rounded=0;orthogonalLoop=1;jettySize=auto;html=1;exitX=0.5;exitY=1;exitDx=0;exitDy=0;entryX=0.5;entryY=0;entryDx=0;entryDy=0;" edge="1" parent="1" source="69QTZIDmYjtBVXrWONyk-3" target="wIyI8dfQiDnWXXMvzWBP-24">
          <mxGeometry relative="1" as="geometry" />
        </mxCell>
        <mxCell id="69QTZIDmYjtBVXrWONyk-3" value="ioctl()" style="rounded=0;whiteSpace=wrap;html=1;" vertex="1" parent="1">
          <mxGeometry x="231" y="602.5" width="120" height="20" as="geometry" />
        </mxCell>
        <mxCell id="69QTZIDmYjtBVXrWONyk-6" value="&lt;font style=&quot;font-size: 9px;&quot;&gt;// udp messages&lt;/font&gt;" style="text;html=1;align=center;verticalAlign=middle;whiteSpace=wrap;rounded=0;" vertex="1" parent="1">
          <mxGeometry x="41" y="502" width="106" height="20" as="geometry" />
        </mxCell>
        <mxCell id="69QTZIDmYjtBVXrWONyk-7" value="&lt;font style=&quot;font-size: 9px;&quot;&gt;// I/O multiplexing&lt;/font&gt;" style="text;html=1;align=center;verticalAlign=middle;whiteSpace=wrap;rounded=0;" vertex="1" parent="1">
          <mxGeometry x="431" y="502" width="106" height="20" as="geometry" />
        </mxCell>
        <mxCell id="69QTZIDmYjtBVXrWONyk-12" value="&lt;font size=&quot;1&quot;&gt;// tcp listening socket&lt;/font&gt;" style="text;html=1;align=center;verticalAlign=middle;whiteSpace=wrap;rounded=0;" vertex="1" parent="1">
          <mxGeometry x="365" y="762.5" width="106" height="20" as="geometry" />
        </mxCell>
        <mxCell id="69QTZIDmYjtBVXrWONyk-13" value="&lt;font style=&quot;font-size: 9px;&quot;&gt;// udp socket&lt;/font&gt;" style="text;html=1;align=center;verticalAlign=middle;whiteSpace=wrap;rounded=0;" vertex="1" parent="1">
          <mxGeometry x="365" y="802.5" width="106" height="20" as="geometry" />
        </mxCell>
        <mxCell id="69QTZIDmYjtBVXrWONyk-14" value="&lt;font style=&quot;font-size: 9px;&quot;&gt;// wihle the app is not closed&lt;/font&gt;" style="text;html=1;align=center;verticalAlign=middle;whiteSpace=wrap;rounded=0;rotation=90;" vertex="1" parent="1">
          <mxGeometry x="721" y="442" width="106" height="20" as="geometry" />
        </mxCell>
        <mxCell id="69QTZIDmYjtBVXrWONyk-26" value="&lt;font style=&quot;font-size: 9px;&quot;&gt;// udp socket&lt;/font&gt;" style="text;html=1;align=center;verticalAlign=middle;whiteSpace=wrap;rounded=0;" vertex="1" parent="1">
          <mxGeometry x="731" y="322" width="66" height="20" as="geometry" />
        </mxCell>
        <mxCell id="69QTZIDmYjtBVXrWONyk-27" value="&lt;font style=&quot;font-size: 9px;&quot;&gt;// tcp socket&lt;/font&gt;" style="text;html=1;align=center;verticalAlign=middle;whiteSpace=wrap;rounded=0;" vertex="1" parent="1">
          <mxGeometry x="727" y="242" width="70" height="20" as="geometry" />
        </mxCell>
        <mxCell id="69QTZIDmYjtBVXrWONyk-34" value="&lt;font style=&quot;font-size: 9px;&quot;&gt;// close both sockets&lt;/font&gt;" style="text;html=1;align=center;verticalAlign=middle;whiteSpace=wrap;rounded=0;" vertex="1" parent="1">
          <mxGeometry x="731" y="562" width="66" height="20" as="geometry" />
        </mxCell>
      </root>
    </mxGraphModel>
  </diagram>
</mxfile>
